<?xml version="1.0" standalone="no"?>
<svg xmlns:xlink="http://www.w3.org/1999/xlink" id="wave" style="transform:rotate(180deg); transition: 0.3s" viewBox="0 0 1440 140" version="1.1" xmlns="http://www.w3.org/2000/svg"><defs><linearGradient id="sw-gradient-0" x1="0" x2="0" y1="1" y2="0"><stop stop-color="rgba(255, 61, 61, 1)" offset="0%"/><stop stop-color="rgba(250, 143, 218, 1)" offset="100%"/></linearGradient></defs><path style="transform:translate(0, 0px); opacity:1" fill="url(#sw-gradient-0)" d="M0,28L60,39.7C120,51,240,75,360,72.3C480,70,600,42,720,25.7C840,9,960,5,1080,7C1200,9,1320,19,1440,32.7C1560,47,1680,65,1800,74.7C1920,84,2040,84,2160,72.3C2280,61,2400,37,2520,25.7C2640,14,2760,14,2880,18.7C3000,23,3120,33,3240,44.3C3360,56,3480,70,3600,84C3720,98,3840,112,3960,116.7C4080,121,4200,117,4320,107.3C4440,98,4560,84,4680,77C4800,70,4920,70,5040,79.3C5160,89,5280,107,5400,98C5520,89,5640,51,5760,49C5880,47,6000,79,6120,95.7C6240,112,6360,112,6480,102.7C6600,93,6720,75,6840,74.7C6960,75,7080,93,7200,91C7320,89,7440,65,7560,67.7C7680,70,7800,98,7920,102.7C8040,107,8160,89,8280,74.7C8400,61,8520,51,8580,46.7L8640,42L8640,140L8580,140C8520,140,8400,140,8280,140C8160,140,8040,140,7920,140C7800,140,7680,140,7560,140C7440,140,7320,140,7200,140C7080,140,6960,140,6840,140C6720,140,6600,140,6480,140C6360,140,6240,140,6120,140C6000,140,5880,140,5760,140C5640,140,5520,140,5400,140C5280,140,5160,140,5040,140C4920,140,4800,140,4680,140C4560,140,4440,140,4320,140C4200,140,4080,140,3960,140C3840,140,3720,140,3600,140C3480,140,3360,140,3240,140C3120,140,3000,140,2880,140C2760,140,2640,140,2520,140C2400,140,2280,140,2160,140C2040,140,1920,140,1800,140C1680,140,1560,140,1440,140C1320,140,1200,140,1080,140C960,140,840,140,720,140C600,140,480,140,360,140C240,140,120,140,60,140L0,140Z"/></svg>