<?xml version="1.0" standalone="no"?>
<svg xmlns:xlink="http://www.w3.org/1999/xlink" id="wave" style="transform:rotate(0deg); transition: 0.3s" viewBox="0 0 1440 490" version="1.1" xmlns="http://www.w3.org/2000/svg"><defs><linearGradient id="sw-gradient-0" x1="0" x2="0" y1="1" y2="0"><stop stop-color="rgba(255, 61, 61, 1)" offset="0%"/><stop stop-color="rgba(250, 143, 218, 1)" offset="100%"/></linearGradient></defs><path style="transform:translate(0, 0px); opacity:1" fill="url(#sw-gradient-0)" d="M0,98L60,138.8C120,180,240,261,360,253.2C480,245,600,147,720,89.8C840,33,960,16,1080,24.5C1200,33,1320,65,1440,114.3C1560,163,1680,229,1800,261.3C1920,294,2040,294,2160,253.2C2280,212,2400,131,2520,89.8C2640,49,2760,49,2880,65.3C3000,82,3120,114,3240,155.2C3360,196,3480,245,3600,294C3720,343,3840,392,3960,408.3C4080,425,4200,408,4320,375.7C4440,343,4560,294,4680,269.5C4800,245,4920,245,5040,277.7C5160,310,5280,376,5400,343C5520,310,5640,180,5760,171.5C5880,163,6000,278,6120,334.8C6240,392,6360,392,6480,359.3C6600,327,6720,261,6840,261.3C6960,261,7080,327,7200,318.5C7320,310,7440,229,7560,236.8C7680,245,7800,343,7920,359.3C8040,376,8160,310,8280,261.3C8400,212,8520,180,8580,163.3L8640,147L8640,490L8580,490C8520,490,8400,490,8280,490C8160,490,8040,490,7920,490C7800,490,7680,490,7560,490C7440,490,7320,490,7200,490C7080,490,6960,490,6840,490C6720,490,6600,490,6480,490C6360,490,6240,490,6120,490C6000,490,5880,490,5760,490C5640,490,5520,490,5400,490C5280,490,5160,490,5040,490C4920,490,4800,490,4680,490C4560,490,4440,490,4320,490C4200,490,4080,490,3960,490C3840,490,3720,490,3600,490C3480,490,3360,490,3240,490C3120,490,3000,490,2880,490C2760,490,2640,490,2520,490C2400,490,2280,490,2160,490C2040,490,1920,490,1800,490C1680,490,1560,490,1440,490C1320,490,1200,490,1080,490C960,490,840,490,720,490C600,490,480,490,360,490C240,490,120,490,60,490L0,490Z"/></svg>